<?xml version="1.0" encoding="utf-8"?>
<svg xmlns="http://www.w3.org/2000/svg" viewBox="0 0 30 35" xmlns:bx="https://boxy-svg.com" width="30px" height="35px"><defs><bx:export><bx:file format="svg"/></bx:export></defs><g id="sound-mute-alt" transform="matrix(1, 0, 0, 1, -0.115311, 4.093607)"><g id="SVGRepo_bgCarrier" stroke-width="0" transform="matrix(1, 0, 0, 1, 1.854126, -6.971792)"/><g id="SVGRepo_tracerCarrier" stroke-linecap="round" stroke-linejoin="round" transform="matrix(1, 0, 0, 1, 1.854126, -6.971792)"/><g id="SVGRepo_iconCarrier" transform="matrix(1, 0, 0, 1, 1.854126, -6.971792)"><path d="M 18.721 3.134 C 17.908 2.793 16.97 2.973 16.342 3.593 L 8.269 11.688 L 2.617 11.688 C 0.207 11.688 -1.747 13.642 -1.747 16.053 L -1.747 24.781 C -1.747 27.191 0.207 29.144 2.617 29.144 L 8.269 29.144 L 16.342 37.241 C 16.755 37.648 17.311 37.877 17.891 37.873 C 18.178 37.881 18.461 37.821 18.721 37.698 C 19.536 37.364 20.069 36.572 20.074 35.691 L 20.074 5.142 C 20.069 4.261 19.536 3.469 18.721 3.134 Z" style="fill: rgb(172, 172, 172);"/></g></g></svg>